<?xml version="1.0" ?><svg id="Layer_1" style="enable-background:new 0 0 64 64;" version="1.1" viewBox="0 0 64 64" xml:space="preserve" xmlns="http://www.w3.org/2000/svg" xmlns:xlink="http://www.w3.org/1999/xlink"><style type="text/css">
	.st0{fill:#658FAA;}
	.st1{fill:#7CA2C1;}
	.st2{fill:#E9E8E8;}
	.st3{fill:#E8AA60;}
	.st4{fill:#DD9C55;}
	.st5{fill:#D7D7D7;}
	.st6{fill:#DA4866;}
	.st7{fill:#8FCBBB;}
	.st8{fill:#355471;}
	.st9{fill:#EFBA73;}
	.st10{fill:#66B09C;}
	.st11{fill:#B23255;}
	.st12{fill:#519E87;}
	.st13{fill:#ADADAD;}
	.st14{fill:#C7C7C7;}
	.st15{fill:#F0D299;}
	.st16{fill:#FFE4AA;}
	.st17{fill:#DFC189;}
	.st18{fill:#2D4A63;}
	.st19{fill:#5888A1;}
	.st20{fill:#DE8344;}
	.st21{fill:#D17637;}
	.st22{fill:none;}
	.st23{fill:#214056;}
	.st24{fill:#ED9056;}
</style><g><g><path class="st11" d="M39.01,18.24c0.06,0.03,0.12,0.04,0.18,0.04c0.15,0,0.29-0.08,0.36-0.22l3.89-7.64    c0.1-0.2,0.02-0.44-0.17-0.54c-0.06-0.03-0.12-0.04-0.18-0.04c-0.15,0-0.29,0.08-0.36,0.22l-3.89,7.64    C38.74,17.9,38.81,18.14,39.01,18.24z"/><path class="st11" d="M26.12,43.52c-0.06-0.03-0.12-0.04-0.18-0.04c-0.15,0-0.29,0.08-0.36,0.22l-5.03,9.88    c-0.1,0.2-0.02,0.44,0.17,0.54c0.06,0.03,0.12,0.04,0.18,0.04c0.15,0,0.29-0.08,0.36-0.22l5.03-9.88    C26.4,43.86,26.32,43.62,26.12,43.52z"/><path class="st11" d="M24.46,18.07c0.07,0.13,0.21,0.22,0.36,0.22c0.06,0,0.13-0.02,0.18-0.04c0.2-0.1,0.27-0.34,0.17-0.54    l-3.9-7.64c-0.07-0.13-0.21-0.22-0.36-0.22c-0.06,0-0.12,0.01-0.18,0.04c-0.2,0.1-0.27,0.34-0.17,0.54L24.46,18.07z"/><path class="st11" d="M43.44,53.57l-5.03-9.88c-0.07-0.13-0.21-0.22-0.36-0.22c-0.06,0-0.12,0.01-0.18,0.04    c-0.2,0.1-0.27,0.34-0.18,0.54l5.03,9.88c0.07,0.13,0.21,0.22,0.36,0.22c0.06,0,0.13-0.02,0.18-0.04    C43.46,54.01,43.54,53.77,43.44,53.57z"/></g><g><polygon class="st6" points="46.08,21.58 46.08,39.51 45.37,39.92 34.32,46.23 32.25,47.42 32,47.56 31.75,47.42 29.65,46.22     18.58,39.89 17.92,39.51 17.92,21.58 18.33,21.34 30.54,14.38 31.99,13.56 32,13.55 32.01,13.56 33.49,14.4 45.66,21.34   "/></g><path class="st11" d="M37.61,23.54L32,31.31l-5.6-7.76L37.61,23.54z M26.01,24.38l5.5,7.62l-5.5,7.61V24.38z M26.39,40.45L32,32.68   l5.6,7.76L26.39,40.45z M37.99,39.6l-5.5-7.6l5.5-7.61V39.6z M57.89,46.57c-0.02-0.1-0.08-0.19-0.18-0.25l-11.63-7.27   C46.03,39.02,45.97,39,45.85,39H45.8l-6.4,1.25l6.68-8.12v-1.26l-7.29,8.86v-15.7l7.29,6.34v-1.06l-6.81-5.92l6.75-1.32l0.06-0.02   l11.46-4.56c0.1-0.04,0.18-0.11,0.22-0.21c0.04-0.1,0.04-0.21,0-0.31c-0.06-0.15-0.2-0.25-0.37-0.25c-0.05,0-0.1,0.01-0.14,0.03   L45.8,21.31l-0.14,0.03l-7.07,1.37l-5.1-8.31l-1.48-0.84l5.66,9.19l-11.35,0.01l5.67-9.2l-1.45,0.82l-5.12,8.33l-7.09-1.37   l-0.07-0.01L6.75,16.76c-0.05-0.02-0.1-0.03-0.15-0.03c-0.16,0-0.31,0.1-0.37,0.25c-0.08,0.21,0.02,0.44,0.22,0.52l11.47,4.54   l0.12,0.05l6.7,1.29l-6.82,5.92v1.06l7.29-6.33v15.69l-7.29-8.84v1.26l6.68,8.1l-6.49-1.25c-0.06,0-0.13,0.02-0.19,0.05   c-0.01,0-0.01,0.01-0.02,0.01L6.32,46.37c-0.19,0.12-0.24,0.37-0.13,0.55c0.08,0.12,0.2,0.19,0.34,0.19c0.08,0,0.15-0.02,0.22-0.06   l11.48-7.23l0.35,0.07l6.83,1.33l4.24,5l2.1,1.2l-5.27-6.18l11.05-0.01l-5.28,6.19l2.07-1.19l4.32-5.03l6.73-1.28l0.46-0.09   L57.29,47c0.06,0.04,0.14,0.06,0.21,0.06c0.14,0,0.27-0.07,0.34-0.19C57.9,46.78,57.92,46.67,57.89,46.57z"/><path class="st11" d="M32.42,8.51v4.18L32.4,61.41c0,0.22-0.18,0.4-0.4,0.4c-0.22,0-0.4-0.18-0.4-0.4V12.69h-0.02L31.6,2.58   c0-0.22,0.18-0.4,0.4-0.4c0.22,0,0.4,0.18,0.4,0.4v5.93H32.42z"/><polygon class="st11" points="32.44,12.69 32.42,12.69 32.42,12.66  "/><g><path class="st8" d="M4.76,17.77c0.62,0.36,1.41,0.15,1.77-0.47c0.36-0.62,0.15-1.41-0.47-1.77C5.43,15.17,4.64,15.38,4.29,16    C3.93,16.62,4.14,17.41,4.76,17.77z"/><path class="st8" d="M4.76,46.24C4.14,46.59,3.93,47.38,4.29,48c0.36,0.62,1.15,0.83,1.77,0.47c0.62-0.36,0.83-1.15,0.47-1.77    C6.17,46.09,5.38,45.88,4.76,46.24z"/><path class="st8" d="M59.24,46.23c-0.62-0.36-1.41-0.15-1.77,0.47c-0.36,0.62-0.15,1.41,0.47,1.77c0.62,0.36,1.41,0.15,1.77-0.47    C60.07,47.38,59.86,46.59,59.24,46.23z"/><path class="st8" d="M59.24,17.76c0.62-0.36,0.83-1.15,0.47-1.77c-0.36-0.62-1.15-0.83-1.77-0.47c-0.62,0.36-0.83,1.15-0.47,1.77    C57.83,17.91,58.62,18.12,59.24,17.76z"/><path class="st8" d="M32,2.59c0.71,0,1.29-0.58,1.29-1.29C33.29,0.58,32.71,0,32,0c-0.71,0-1.29,0.58-1.29,1.29    C30.7,2.01,31.28,2.59,32,2.59z"/><path class="st8" d="M32,61.41c-0.71,0-1.29,0.58-1.29,1.29c0,0.71,0.58,1.29,1.29,1.29c0.71,0,1.29-0.58,1.29-1.29    C33.3,61.99,32.72,61.41,32,61.41z"/><path class="st8" d="M44.26,7.94c-0.64-0.32-1.42-0.07-1.74,0.57c-0.32,0.64-0.07,1.42,0.57,1.74c0.64,0.32,1.42,0.07,1.74-0.57    C45.15,9.05,44.89,8.27,44.26,7.94z"/><path class="st8" d="M20.92,53.75c-0.64-0.32-1.42-0.07-1.74,0.57c-0.32,0.64-0.07,1.42,0.56,1.74s1.42,0.07,1.74-0.57    C21.81,54.86,21.55,54.08,20.92,53.75z"/><path class="st8" d="M19.74,7.94c-0.64,0.32-0.89,1.1-0.56,1.74c0.32,0.64,1.1,0.89,1.74,0.57c0.64-0.32,0.89-1.1,0.56-1.74    C21.16,7.87,20.38,7.62,19.74,7.94z"/><path class="st8" d="M43.08,53.75c-0.64,0.32-0.89,1.1-0.57,1.74c0.32,0.64,1.1,0.89,1.74,0.57s0.89-1.1,0.57-1.74    C44.5,53.68,43.72,53.43,43.08,53.75z"/></g></g></svg>